# xmcd
#
# Track frame offsets: 
#        150
#        15072
#        38449
#        63842
#        78910
#        128674
#        155921
#        179693
#        199887
#        229369
#        250073
#        287546
#
# Disc length: 3852 seconds
#
# Revision: 0
# Processed by: cddbd v1.4PL0 Copyright (c) Steve Scherf et al.
# Submitted via: ExactAudioCopy v0.90b4
#
DISCID=950f0a0c
DTITLE=Big Blues Revival - Danger Men Playing
DYEAR=2001
DGENRE=Blues
TTITLE0=My Babe (Willie Dixon)
TTITLE1=I Wish You Would (Billy Boy Arnold)
TTITLE2=Babe Lee (John Lee Hooker)
TTITLE3=Howlin' or My Darling (Barnet and Dixon)
TTITLE4=You Shook Me (Dixon and J.B.Lenoir)
TTITLE5=Shake Your Hips (Billy Boy Arnold)
TTITLE6=Sweet Home Chicago (Robert Johnson)
TTITLE7=Harp and Harp (Improvisation)
TTITLE8=No No No
TTITLE9=Everyday I Have The Blues (P.Chatman)
TTITLE10=Она Вещички Собрала (Django Reinhardt and А.Галич)
TTITLE11=Band Photos
EXTD=
EXTT0=
EXTT1=
EXTT2=
EXTT3=
EXTT4=
EXTT5=
EXTT6=
EXTT7=
EXTT8=
EXTT9=
EXTT10=
EXTT11=
PLAYORDER=
